<svg width="10" height="22" viewBox="0 0 10 22" fill="none" xmlns="http://www.w3.org/2000/svg">
<path fill-rule="evenodd" clip-rule="evenodd" d="M2.20405 11.0868V21.7233C2.20405 21.8764 2.325 22 2.47478 22H6.33954C6.48932 22 6.61027 21.8764 6.61027 21.7233V10.9137H9.41218C9.55255 10.9137 9.67037 10.8028 9.68228 10.6595L9.95176 7.4026C9.96492 7.24093 9.84021 7.10257 9.68165 7.10257H6.61027V4.79169C6.61027 4.24975 7.04018 3.81086 7.56973 3.81086H9.72928C9.87906 3.81086 10 3.68679 10 3.53364V0.27677C10 0.124133 9.87906 9.32774e-07 9.72928 9.32774e-07H6.0801C3.93934 9.32774e-07 2.20405 1.77348 2.20405 3.96228V7.10257H0.271344C0.122193 7.10257 0 7.2262 0 7.37928V10.6365C0 10.7889 0.122193 10.9137 0.271344 10.9137H2.20405V11.0868" fill="white"/>
</svg>
