<svg width="23" height="26" viewBox="0 0 23 26" fill="none" xmlns="http://www.w3.org/2000/svg">
<path d="M20.8541 17.7857C20.8541 20.5609 18.7476 22.8102 16.1484 22.8102H7.10595C4.50678 22.8102 2.40027 20.5609 2.40027 17.7857V8.12962C2.40027 5.35422 4.50678 3.10493 7.10595 3.10493H16.1484C18.7476 3.10493 20.8541 5.35422 20.8541 8.12962V17.7857ZM23 8.12962C23 4.08945 19.9329 0.813825 16.1484 0.813825H7.10595C3.32147 0.813825 0.254395 4.08945 0.254395 8.12962V17.7857C0.254395 21.8259 3.32147 25.1016 7.10595 25.1016H16.1484C19.9329 25.1016 23 21.8259 23 17.7857V8.12962ZM11.6662 16.9572C9.68225 16.9572 8.06778 15.2333 8.06778 13.1149C8.06778 10.9964 9.68225 9.2725 11.6662 9.2725C13.6502 9.2725 15.2641 10.9964 15.2641 13.1149C15.2641 15.2333 13.6502 16.9572 11.6662 16.9572ZM11.6662 7.11703C8.56869 7.11703 6.04888 9.80743 6.04888 13.1149C6.04888 16.4225 8.56869 19.1125 11.6662 19.1125C14.7638 19.1125 17.2829 16.4225 17.2829 13.1149C17.2829 9.80743 14.7638 7.11703 11.6662 7.11703ZM17.6112 5.28588C16.8728 5.28588 16.2735 5.92433 16.2735 6.71294C16.2735 7.50202 16.8728 8.14128 17.6112 8.14128C18.3495 8.14128 18.9482 7.50202 18.9482 6.71294C18.9482 5.92433 18.3495 5.28588 17.6112 5.28588Z" fill="white"/>
</svg>
