<svg width="20" height="18" viewBox="0 0 20 18" fill="none" xmlns="http://www.w3.org/2000/svg">
<path d="M19.925 2.1574C19.2896 2.47157 18.5901 2.66252 17.905 2.78829C18.2302 2.72796 18.7099 2.08405 18.9015 1.82432C19.1944 1.42659 19.4375 0.974407 19.5747 0.485385C19.592 0.447562 19.6052 0.399791 19.5705 0.370409C19.5267 0.351955 19.498 0.361182 19.4633 0.380879C18.6979 0.828478 17.9062 1.15358 17.0641 1.38392C16.9935 1.40283 16.942 1.38392 16.8982 1.33609C16.8282 1.24971 16.7629 1.16869 16.6886 1.10123C16.3347 0.772201 15.9544 0.514308 15.5256 0.323097C14.9632 0.0725991 14.3488 -0.0334764 13.7433 0.00918947C13.1534 0.051659 12.5743 0.232857 12.0515 0.531453C11.5268 0.83103 11.0591 1.24715 10.6866 1.7492C10.3021 2.26858 10.0176 2.88233 9.87211 3.53292C9.73137 4.16047 9.74275 4.78083 9.82839 5.41552C9.84156 5.52113 9.83319 5.5354 9.74635 5.52113C6.45008 4.98506 3.71735 3.69599 1.49968 0.934292C1.40326 0.814671 1.35117 0.814671 1.27211 0.944239C0.30192 2.53367 0.772639 5.08708 1.98538 6.34212C2.14648 6.50984 2.31297 6.6773 2.49204 6.8299C2.42676 6.84469 1.61946 6.74856 0.900794 6.34212C0.804373 6.27544 0.755875 6.31405 0.74749 6.43393C0.739106 6.60466 0.752277 6.76368 0.773238 6.94952C0.960091 8.56121 1.98119 10.0512 3.37959 10.633C3.54548 10.7089 3.72933 10.7756 3.909 10.8091C3.59039 10.8855 3.26161 10.94 2.34771 10.862C2.23392 10.838 2.19079 10.9006 2.23391 11.0192C2.92084 13.0647 4.40308 13.6733 5.51281 14.0194C5.66134 14.0483 5.81106 14.0483 5.95958 14.0861C5.9506 14.1007 5.94162 14.1007 5.93323 14.1155C5.56492 14.7283 4.2887 15.1855 3.69341 15.412C2.61302 15.8248 1.4356 16.0107 0.292931 15.8877C0.109672 15.8583 0.0719401 15.8609 0.0216337 15.8877C-0.0280738 15.9217 0.0156525 15.9695 0.0743433 16.0212C0.306112 16.1888 0.542662 16.3366 0.782815 16.48C1.50866 16.9007 2.26506 17.2343 3.05618 17.4738C7.14178 18.7062 11.7442 17.801 14.8117 14.4703C17.2204 11.8549 18.0649 8.24854 18.0649 4.63693C18.0649 4.49558 18.2176 4.41758 18.3092 4.34324C18.9357 3.82811 19.4339 3.21286 19.9016 2.52523C20.0065 2.37086 19.9999 2.23331 19.9999 2.1771C19.9999 2.16663 19.9999 2.1574 19.9999 2.1574C19.9999 2.10041 20.0065 2.11755 19.925 2.1574" fill="white"/>
</svg>
