<svg width="22" height="24" viewBox="0 0 22 24" fill="none" xmlns="http://www.w3.org/2000/svg">
<path fill-rule="evenodd" clip-rule="evenodd" d="M10.8427 21.9511C9.25933 21.9511 7.70108 21.5007 6.33715 20.6494C6.19047 20.5592 6.025 20.5116 5.85889 20.5116C5.7749 20.5116 5.69091 20.5236 5.60817 20.5477L2.64399 21.4165L3.67634 18.9876C3.81675 18.6569 3.78039 18.272 3.58232 17.9777C2.47726 16.3431 1.8937 14.4123 1.8937 12.3949C1.8937 7.12544 5.90841 2.83926 10.8427 2.83926C15.7775 2.83926 19.7916 7.12544 19.7916 12.3949C19.7916 17.6636 15.7775 21.9511 10.8427 21.9511V21.9511ZM10.8427 0.817216C4.86414 0.817216 0.000290899 6.01038 0.000290899 12.3949C0.000290899 14.641 0.596952 16.7975 1.73198 18.6697L0.0847212 22.5436C-0.0670294 22.9018 -0.0119311 23.3201 0.226006 23.6179C0.40916 23.8466 0.673295 23.9727 0.946584 23.9727C1.03058 23.9727 1.11394 23.9612 1.19731 23.9363L5.73604 22.6071C7.30244 23.5021 9.05938 23.9727 10.8427 23.9727C16.8212 23.9727 21.6858 18.7787 21.6858 12.3949C21.6858 6.01038 16.8212 0.817216 10.8427 0.817216" fill="white"/>
<path fill-rule="evenodd" clip-rule="evenodd" d="M15.0112 14.1284C14.5574 13.8393 13.9663 13.5148 13.4317 13.749C13.0217 13.9276 12.7597 14.6144 12.4939 14.9645C12.3567 15.1444 12.1937 15.1726 11.9843 15.0821C10.4436 14.427 9.26336 13.3286 8.41341 11.8154C8.26987 11.5804 8.29557 11.395 8.46857 11.1769C8.72556 10.8543 9.04836 10.4875 9.11731 10.0524C9.18689 9.6174 8.99634 9.10867 8.8271 8.72121C8.6121 8.22573 8.37204 7.51989 7.90695 7.24013C7.48009 6.98232 6.91784 7.12615 6.53737 7.45685C5.8811 8.02836 5.56393 8.92254 5.57396 9.80962C5.57647 10.0611 5.60593 10.3129 5.66046 10.5558C5.79272 11.14 6.04595 11.6867 6.33114 12.2054C6.54614 12.5971 6.77932 12.9765 7.03129 13.342C7.85492 14.5381 8.88038 15.576 10.0676 16.3525C10.6599 16.7407 11.2992 17.0806 11.9605 17.3143C12.7027 17.5761 13.3633 17.8485 14.1644 17.6858C15.0037 17.5156 15.8298 16.9617 16.1627 16.0989C16.2617 15.8432 16.3112 15.5579 16.2561 15.2884C16.142 14.7308 15.4343 14.3987 15.0112 14.1284" fill="white"/>
</svg>
