<?xml version="1.0" standalone="no"?>
<!DOCTYPE svg PUBLIC "-//W3C//DTD SVG 20010904//EN"
 "http://www.w3.org/TR/2001/REC-SVG-20010904/DTD/svg10.dtd">
<svg version="1.0" xmlns="http://www.w3.org/2000/svg"
 width="335.000000pt" height="335.000000pt" viewBox="0 0 335.000000 335.000000"
 preserveAspectRatio="xMidYMid meet">
<metadata>
Created by potrace 1.11, written by Peter Selinger 2001-2013
</metadata>
<g transform="translate(0.000000,335.000000) scale(0.100000,-0.100000)"
fill="#000000" stroke="none">
<path d="M2574 3325 c-27 -14 -76 -51 -109 -83 -82 -78 -265 -276 -325 -351
-19 -24 -40 -48 -45 -55 -49 -55 -254 -319 -318 -411 -15 -22 -51 -71 -78
-110 -114 -159 -391 -589 -416 -645 -4 -8 -19 -35 -33 -60 -63 -107 -213 -396
-230 -444 -6 -16 -13 -27 -16 -24 -8 9 153 511 243 755 24 68 41 128 37 134
-4 7 -3 9 3 6 5 -3 24 31 43 76 18 45 43 105 55 132 63 142 84 198 78 208 -4
6 -1 7 7 2 10 -6 12 -4 7 9 -4 9 -3 15 2 12 5 -3 14 15 21 39 7 25 17 45 22
45 6 0 7 7 4 16 -3 8 -2 12 4 9 6 -3 10 5 10 19 0 14 5 26 11 26 5 0 7 5 4 10
-3 6 -1 10 4 10 6 0 10 3 9 8 -4 10 95 213 100 207 7 -7 38 37 63 90 14 32 23
70 23 105 1 49 -3 61 -32 98 -46 57 -86 84 -135 89 -65 6 -110 -26 -184 -132
-122 -175 -136 -199 -193 -334 -31 -75 -66 -156 -77 -181 -48 -107 -141 -348
-147 -382 -4 -22 -15 -42 -26 -48 -27 -14 -128 -281 -145 -385 -4 -22 -29
-109 -56 -192 -27 -84 -49 -161 -49 -170 0 -38 -34 -162 -67 -246 -34 -87 -75
-234 -87 -312 -4 -22 -11 -67 -17 -100 -6 -33 -12 -76 -14 -95 -2 -19 -13 -91
-25 -160 -31 -172 -30 -167 -36 -245 -11 -123 21 -189 112 -235 36 -18 65 -25
110 -25 89 0 117 30 127 141 28 297 212 755 534 1334 77 138 391 647 472 765
55 81 152 214 183 250 9 11 54 67 100 125 46 58 90 112 98 120 8 9 26 30 40
47 29 35 136 157 165 188 51 54 110 95 136 95 23 0 30 -6 39 -35 31 -95 -54
-451 -231 -967 -191 -556 -214 -615 -355 -904 -86 -177 -224 -426 -299 -539
-123 -186 -257 -257 -370 -197 -78 42 -133 108 -211 253 l-55 104 6 -65 c21
-215 161 -414 338 -476 264 -93 513 68 813 526 73 111 95 150 171 295 50 95
70 147 78 205 3 19 32 87 64 150 79 155 179 410 240 613 28 92 53 179 56 194
3 16 14 67 23 116 15 69 16 98 8 136 -7 37 -6 74 7 153 22 141 16 382 -12 490
-32 125 -72 187 -137 214 -48 20 -83 17 -140 -11z m-1179 -504 c3 -5 1 -12 -5
-16 -5 -3 -10 1 -10 9 0 18 6 21 15 7z m-119 -241 c-31 -66 -56 -122 -56 -124
0 -2 -25 -57 -56 -122 -97 -204 -164 -357 -164 -374 0 -9 -4 -20 -8 -26 -11
-12 -36 -82 -58 -162 -28 -105 -42 -84 -18 28 18 86 166 437 282 669 128 257
180 331 78 111z m-343 -1017 c-5 -34 -48 -123 -59 -123 -11 0 7 73 24 97 10
16 22 36 25 46 11 29 16 19 10 -20z m1358 -176 c-6 -6 -11 -18 -11 -27 0 -21
-83 -187 -110 -220 -15 -18 -11 -3 13 50 61 134 112 231 116 219 2 -6 -2 -16
-8 -22z m-163 -152 c-6 -14 -13 -23 -15 -21 -5 5 15 46 22 46 3 0 -1 -11 -7
-25z m-1137 -128 c-10 -9 -11 -8 -5 6 3 10 9 15 12 12 3 -3 0 -11 -7 -18z
m1050 -50 c-10 -9 -11 -8 -5 6 3 10 9 15 12 12 3 -3 0 -11 -7 -18z m-30 -60
c-10 -9 -11 -8 -5 6 3 10 9 15 12 12 3 -3 0 -11 -7 -18z m-52 -94 c-39 -73
-76 -131 -68 -108 8 22 101 185 106 185 3 0 -14 -35 -38 -77z m-75 -140 c-8
-10 -42 -60 -74 -110 -33 -51 -62 -93 -65 -93 -3 0 19 37 48 83 30 45 62 94
71 110 9 15 21 27 26 27 6 0 3 -8 -6 -17z m-319 -388 c-16 -14 -38 -25 -47
-25 -32 0 -19 18 25 33 56 20 57 20 22 -8z"/>
</g>
</svg>
